<?xml version="1.0" encoding="UTF-8"?>
<!DOCTYPE svg PUBLIC "-//W3C//DTD SVG 1.1//EN" "http://www.w3.org/Graphics/SVG/1.1/DTD/svg11.dtd">
<svg xmlns="http://www.w3.org/2000/svg" version="1.1" width="84px" height="84px" style="shape-rendering:geometricPrecision; text-rendering:geometricPrecision; image-rendering:optimizeQuality; fill-rule:evenodd; clip-rule:evenodd" xmlns:xlink="http://www.w3.org/1999/xlink">
<g><path style="opacity:0.745" fill="#000000" d="M 18.5,3.5 C 19.552,3.35055 20.552,3.51722 21.5,4C 22.6796,5.89612 24.1796,7.39612 26,8.5C 30.1952,3.07396 35.3618,2.07396 41.5,5.5C 47.6382,2.07396 52.8048,3.07396 57,8.5C 58.8204,7.39612 60.3204,5.89612 61.5,4C 64.4811,3.6186 66.4811,4.95193 67.5,8C 69.5,8.33333 71.5,8.66667 73.5,9C 74.428,9.38789 75.0946,10.0546 75.5,11C 73.9109,18.0903 69.5775,22.2569 62.5,23.5C 65.0865,24.48 67.7531,24.8134 70.5,24.5C 70.628,26.6547 70.128,28.6547 69,30.5C 62.4158,40.6663 56.0824,50.9997 50,61.5C 50.2392,67.4646 50.4059,73.4646 50.5,79.5C 44.2424,79.8097 38.0758,79.4764 32,78.5C 32.3978,72.8499 32.7312,67.1832 33,61.5C 26.9176,50.9997 20.5842,40.6663 14,30.5C 12.872,28.6547 12.372,26.6547 12.5,24.5C 22.4069,24.4831 22.7402,23.3164 13.5,21C 10.7388,18.1478 8.73883,14.8145 7.5,11C 7.90536,10.0546 8.57203,9.38789 9.5,9C 13.7762,9.09147 16.7762,7.25814 18.5,3.5 Z M 40.5,15.5 C 37.7526,14.0272 36.9193,11.6939 38,8.5C 38.9907,10.8076 39.824,13.1409 40.5,15.5 Z M 40.5,15.5 C 41.4959,15.5858 42.3292,15.2524 43,14.5C 43.1705,12.2852 43.8372,10.2852 45,8.5C 45.7063,10.9712 45.373,13.3046 44,15.5C 42.7083,16.7911 41.5417,16.7911 40.5,15.5 Z M 17.5,17.5 C 19.2517,17.5824 20.2517,16.7491 20.5,15C 19.1529,7.90584 19.8196,7.73918 22.5,14.5C 21.8521,17.8872 20.1855,18.8872 17.5,17.5 Z M 31.5,9.5 C 32.1174,9.61071 32.6174,9.94404 33,10.5C 33.4966,12.8098 33.6633,15.1432 33.5,17.5C 31.8008,17.6602 30.1341,17.4935 28.5,17C 26.9926,16.1627 26.4926,14.9961 27,13.5C 28.1096,15.0368 29.6096,15.7035 31.5,15.5C 31.5,13.5 31.5,11.5 31.5,9.5 Z M 54.5,16.5 C 51.6542,19.085 49.9875,18.2516 49.5,14C 49.4537,12.272 49.9537,10.772 51,9.5C 51.0178,11.7972 50.8511,14.1305 50.5,16.5C 51.8333,16.5 53.1667,16.5 54.5,16.5 Z M 65.5,17.5 C 62.8145,18.8872 61.1479,17.8872 60.5,14.5C 63.1804,7.73918 63.8471,7.90584 62.5,15C 62.7483,16.7491 63.7483,17.5824 65.5,17.5 Z M 17.5,17.5 C 14.8474,16.8585 13.6807,15.1918 14,12.5C 15.6692,13.8463 16.8358,15.513 17.5,17.5 Z M 65.5,17.5 C 66.1642,15.513 67.3308,13.8463 69,12.5C 69.3193,15.1918 68.1526,16.8585 65.5,17.5 Z M 54.5,16.5 C 54.4614,15.2438 54.9614,14.2438 56,13.5C 56.5847,14.9976 56.0847,15.9976 54.5,16.5 Z M 36.5,19.5 C 39.2436,20.0717 40.0769,21.7383 39,24.5C 37.117,23.3474 36.2837,21.6807 36.5,19.5 Z M 44.5,19.5 C 46.6196,20.85 46.453,22.5167 44,24.5C 43.3603,22.735 43.5269,21.0683 44.5,19.5 Z M 24.5,20.5 C 27.7068,21.1792 30.7068,22.3459 33.5,24C 30.7728,24.8184 28.1062,24.6517 25.5,23.5C 24.8728,22.5832 24.5394,21.5832 24.5,20.5 Z M 56.5,20.5 C 58.7583,20.7751 59.0916,21.7751 57.5,23.5C 47.2103,25.1395 46.877,24.1395 56.5,20.5 Z M 18.5,29.5 C 28.6584,28.3415 38.9917,28.1748 49.5,29C 40.4556,34.2267 35.1222,42.06 33.5,52.5C 28.2407,44.9756 23.2407,37.309 18.5,29.5 Z M 63.5,29.5 C 58.2871,39.3921 52.6204,49.0588 46.5,58.5C 43.5719,59.4841 40.5719,59.8174 37.5,59.5C 37.3787,41.6813 46.0454,31.6813 63.5,29.5 Z M 37.5,63.5 C 40.1667,63.5 42.8333,63.5 45.5,63.5C 46.1621,67.4659 46.4955,71.4659 46.5,75.5C 43.1667,75.5 39.8333,75.5 36.5,75.5C 36.3946,71.4517 36.7279,67.4517 37.5,63.5 Z"/></g>
</svg>
